<svg width="600" height="400" viewBox="0 0 600 400" xmlns="http://www.w3.org/2000/svg"><rect width="100%" height="100%" fill="#1a1a1a" /><text x="300" y="30" fill="white" font-family="Arial" font-size="20" text-anchor="middle">Top Weapons (Kills)</text><rect x="55" y="50" width="40" height="300" fill="#e74c3c" rx="4" /><text x="75" y="370" fill="white" font-family="Arial" font-size="12" text-anchor="end" transform="rotate(-45 75 370)">Thompson</text><text x="75" y="45" fill="white" font-family="Arial" font-size="10" text-anchor="middle">5</text><rect x="105" y="50" width="40" height="300" fill="#e74c3c" rx="4" /><text x="125" y="370" fill="white" font-family="Arial" font-size="12" text-anchor="end" transform="rotate(-45 125 370)">stg44</text><text x="125" y="45" fill="white" font-family="Arial" font-size="10" text-anchor="middle">5</text><rect x="155" y="170" width="40" height="180" fill="#e74c3c" rx="4" /><text x="175" y="370" fill="white" font-family="Arial" font-size="12" text-anchor="end" transform="rotate(-45 175 370)">mp40</text><text x="175" y="165" fill="white" font-family="Arial" font-size="10" text-anchor="middle">3</text><rect x="205" y="230" width="40" height="120" fill="#e74c3c" rx="4" /><text x="225" y="370" fill="white" font-family="Arial" font-size="12" text-anchor="end" transform="rotate(-45 225 370)">bar</text><text x="225" y="225" fill="white" font-family="Arial" font-size="10" text-anchor="middle">2</text><rect x="255" y="230" width="40" height="120" fill="#e74c3c" rx="4" /><text x="275" y="370" fill="white" font-family="Arial" font-size="12" text-anchor="end" transform="rotate(-45 275 370)">thompson</text><text x="275" y="225" fill="white" font-family="Arial" font-size="10" text-anchor="middle">2</text><rect x="305" y="230" width="40" height="120" fill="#e74c3c" rx="4" /><text x="325" y="370" fill="white" font-family="Arial" font-size="12" text-anchor="end" transform="rotate(-45 325 370)">p38</text><text x="325" y="225" fill="white" font-family="Arial" font-size="10" text-anchor="middle">2</text><rect x="355" y="230" width="40" height="120" fill="#e74c3c" rx="4" /><text x="375" y="370" fill="white" font-family="Arial" font-size="12" text-anchor="end" transform="rotate(-45 375 370)">m1_garand</text><text x="375" y="225" fill="white" font-family="Arial" font-size="10" text-anchor="middle">2</text><rect x="405" y="230" width="40" height="120" fill="#e74c3c" rx="4" /><text x="425" y="370" fill="white" font-family="Arial" font-size="12" text-anchor="end" transform="rotate(-45 425 370)">grenade</text><text x="425" y="225" fill="white" font-family="Arial" font-size="10" text-anchor="middle">2</text><rect x="455" y="230" width="40" height="120" fill="#e74c3c" rx="4" /><text x="475" y="370" fill="white" font-family="Arial" font-size="12" text-anchor="end" transform="rotate(-45 475 370)">kar98</text><text x="475" y="225" fill="white" font-family="Arial" font-size="10" text-anchor="middle">2</text><rect x="505" y="290" width="40" height="60" fill="#e74c3c" rx="4" /><text x="525" y="370" fill="white" font-family="Arial" font-size="12" text-anchor="end" transform="rotate(-45 525 370)">colt45</text><text x="525" y="285" fill="white" font-family="Arial" font-size="10" text-anchor="middle">1</text><line x1="50" y1="350" x2="550" y2="350" stroke="white" stroke-width="2" /></svg>